<svg width="132" height="131" viewBox="0 0 132 131" fill="none" xmlns="http://www.w3.org/2000/svg">
<path fill-rule="evenodd" clip-rule="evenodd" d="M111.787 28.4114C113.014 27.1846 113.703 25.5207 113.703 23.7858C113.703 22.0508 113.014 20.3869 111.787 19.1601C110.561 17.9333 108.897 17.2441 107.162 17.2441C105.427 17.2441 103.763 17.9333 102.536 19.1601L97.6236 24.0726C90.2159 18.3059 81.3871 14.6491 72.0714 13.4891V6.55059C72.0429 4.83554 71.3418 3.20033 70.1193 1.99715C68.8968 0.793975 67.2506 0.119103 65.5353 0.11789C63.82 0.116677 62.1729 0.789219 60.9487 1.99067C59.7244 3.19211 59.0211 4.82633 58.9901 6.54134V13.4891C49.6744 14.6491 40.8456 18.3059 33.438 24.0726L28.5255 19.1601C27.2987 17.9333 25.6348 17.2441 23.8999 17.2441C22.1649 17.2441 20.501 17.9333 19.2742 19.1601C18.0474 20.3869 17.3582 22.0508 17.3582 23.7858C17.3582 25.5207 18.0474 27.1846 19.2742 28.4114L24.1866 33.3239C18.42 40.7315 14.7632 49.5603 13.6031 58.876L6.65541 58.876C5.78691 58.8609 4.92409 59.019 4.11732 59.3409C3.31054 59.6628 2.57596 60.1422 1.95643 60.751C1.3369 61.3599 0.84484 62.086 0.508946 62.8871C0.173052 63.6881 5.50416e-05 64.5481 5.50416e-05 65.4167C5.50416e-05 66.2853 0.173054 67.1453 0.508948 67.9463C0.844843 68.7474 1.3369 69.4735 1.95643 70.0824C2.57596 70.6912 3.31055 71.1706 4.11732 71.4925C4.9241 71.8144 5.78691 71.9725 6.65541 71.9574L13.6031 71.9574C14.7632 81.273 18.42 90.1019 24.1866 97.5095L19.2742 102.422C18.0474 103.649 17.3582 105.313 17.3582 107.048C17.3582 108.783 18.0474 110.446 19.2742 111.673C20.501 112.9 22.1649 113.589 23.8998 113.589C25.6348 113.589 27.2987 112.9 28.5255 111.673L33.438 106.761C40.8456 112.527 49.6744 116.184 58.9901 117.344V124.292C59.0199 126.007 59.7221 127.642 60.9455 128.844C62.1688 130.046 63.8155 130.72 65.5308 130.72C67.246 130.72 68.8927 130.046 70.116 128.844C71.3394 127.642 72.0416 126.007 72.0714 124.292V117.344C81.3871 116.184 90.2159 112.527 97.6236 106.761L102.536 111.673C103.763 112.9 105.427 113.589 107.162 113.589C108.897 113.589 110.561 112.9 111.787 111.673C113.014 110.446 113.703 108.783 113.703 107.048C113.703 105.313 113.014 103.649 111.787 102.422L106.875 97.5095C112.642 90.1019 116.298 81.273 117.458 71.9574L124.401 71.962C126.137 71.9626 127.801 71.2739 129.029 70.0472C130.256 68.8206 130.946 67.1566 130.947 65.4213C130.947 63.686 130.259 62.0215 129.032 60.7941C127.805 59.5666 126.141 58.8766 124.406 58.876L117.458 58.876C116.298 49.5603 112.642 40.7315 106.875 33.3239L111.787 28.4114ZM104.234 58.8806C103.251 53.0399 100.96 47.4971 97.5311 42.6677L88.0808 52.1179C89.3436 54.2504 90.2734 56.5308 90.8747 58.8714H104.243L104.234 58.8806ZM78.6121 65.3242L78.6121 65.4167L78.6121 65.5092C78.5942 68.0883 77.8144 70.6045 76.3707 72.7417C74.927 74.8789 72.8839 76.5417 70.4981 77.5212C68.1122 78.5008 65.4901 78.7533 62.9611 78.2471C60.4322 77.7408 58.1093 76.4984 56.2843 74.676C54.4593 72.8536 53.2137 70.5324 52.7039 68.0042C52.1941 65.476 52.4429 62.8535 53.4191 60.4663C54.3953 58.079 56.0553 56.0336 58.1904 54.5869C60.3256 53.1402 62.8407 52.3569 65.4197 52.3353L65.5308 52.3353L65.6418 52.3353C68.9491 52.3585 72.2565 53.6398 74.7821 56.1654C77.3123 58.6956 78.589 62.0076 78.6121 65.3242ZM90.8701 71.9574L104.234 71.962C103.248 77.7983 100.955 83.3362 97.5264 88.1611L88.0762 78.7108C89.3189 76.6015 90.2593 74.3281 90.8701 71.9574ZM26.8279 71.962C27.8136 77.7983 30.1065 83.3362 33.5351 88.1611L42.9853 78.7108C41.7427 76.6015 40.8022 74.3281 40.1914 71.9574L26.8279 71.962ZM40.1914 58.876C40.8022 56.5052 41.7427 54.2319 42.9853 52.1226L33.5351 42.6723C30.1043 47.4982 27.8097 53.0377 26.8233 58.876L40.1914 58.876ZM42.7864 33.421L52.2366 42.8712C54.346 41.6286 56.6193 40.6881 58.9901 40.0774L58.9855 26.7138C53.1491 27.6995 47.6113 29.9925 42.7864 33.421ZM88.2751 97.4124L78.8249 87.9621C76.6878 89.2203 74.412 90.1547 72.0714 90.756V104.124C77.9098 103.138 83.4493 100.843 88.2751 97.4124ZM58.9901 90.756C56.6193 90.1453 54.346 89.2048 52.2366 87.9621L42.7864 97.4124C47.6113 100.841 53.1491 103.134 58.9855 104.12L58.9901 90.756ZM72.0714 40.0774L72.0714 26.7092C77.9098 27.6956 83.4493 29.9902 88.2751 33.421L78.8249 42.8712C76.7155 41.6286 74.4422 40.6881 72.0714 40.0774Z" fill="#6628CA"/>
<ellipse cx="65.5307" cy="64.8275" rx="31" ry="32" transform="rotate(45 65.5307 64.8275)" fill="#6628CA"/>
<path d="M37.7769 117.684L43.4126 108.847C44.2989 109.087 45.0176 109.296 45.9947 109.548C49.8431 110.811 53.791 111.801 57.9497 112.237C63.1582 112.783 68.4487 112.867 73.858 112.14C78.1008 111.569 82.2882 110.442 86.2824 108.197C88.9406 106.702 91.3484 104.863 93.2818 102.418C94.8605 100.414 96.0064 98.1434 96.6283 95.7883C97.3978 92.9625 97.4462 90.1088 96.7688 87.505C95.9407 84.1792 94.1856 81.5082 91.7989 79.2831C89.6835 77.3147 87.18 75.8788 84.4338 74.7929C79.3764 72.7965 73.9556 71.7492 68.3782 71.1184C66.7483 70.9333 65.0842 70.9392 63.3779 71.2018C62.4522 71.3437 61.5584 71.6352 60.7228 72.215C59.3158 73.1931 58.9827 74.677 59.9515 75.7584C60.6276 76.5178 61.5975 76.8266 62.5772 77.101C65.6205 77.9599 68.8585 78.2447 72.029 78.7166C74.6312 79.1051 77.2253 79.5345 79.6454 80.4021C82.033 81.2568 84.1269 82.5083 85.5323 84.6091C87.0606 86.8965 87.5271 89.5032 86.3778 92.5169C85.5746 94.6278 84.0785 96.227 82.1616 97.4592C79.9723 98.8647 77.6362 99.4477 75.2614 99.7518C72.0039 100.157 68.7874 100.076 65.7188 99.5097C62.4858 98.9312 59.2301 98.4084 56.0554 97.6726C52.3404 96.813 48.8932 95.3885 45.5574 93.7619C42.7567 92.3963 40.3108 90.6017 38.377 88.2125C36.753 86.2064 35.6742 83.8738 35.4125 81.1242C35.164 78.6822 35.6822 76.0937 36.8993 73.6974C38.8015 69.9183 41.7479 67.0709 45.2584 64.7484C49.2297 62.1177 53.4839 60.6809 57.8677 59.7704C61.1982 59.08 64.494 58.8201 67.7675 58.822C72.4005 58.8047 76.9521 59.2185 81.365 60.058C82.8605 60.3487 84.3361 60.6881 85.7344 60.9893L84.4821 63.9783C83.1963 63.6965 81.9388 63.3989 80.6687 63.1427C75.2336 62.0027 69.538 61.6474 63.7396 62.0867C60.5889 62.3125 57.408 63.046 54.3195 64.2591C51.0694 65.554 48.1387 67.4328 45.8034 70.2301C43.2483 73.2926 42.1981 76.562 43.0828 80.0375C43.6083 82.1107 44.7662 83.729 46.2343 85.1237C48.2551 87.0464 50.7815 88.2408 53.3983 89.2952C57.3005 90.8711 61.4688 91.7972 65.7282 92.496C68.2276 92.909 70.7424 93.2982 73.3842 93.119C74.7808 93.0218 76.1896 92.9124 77.5575 92.2086C79.9938 90.9521 80.753 88.5181 79.275 86.663C78.4679 85.6551 77.2895 85.1918 76.0509 84.8299C72.7716 83.8769 69.2762 83.5649 65.8474 83.0502C63.2325 82.6539 60.6283 82.2096 58.2012 81.3202C56.5185 80.7053 54.9995 79.8523 53.9252 78.4352C52.0753 76.0074 52.7444 72.6653 55.5193 70.3565C57.699 68.5398 60.1463 67.7302 62.7084 67.3832C65.5404 66.9974 68.2851 67.1072 70.9807 67.4764C75.1192 68.0446 79.2214 68.7233 83.1359 69.9197C87.6747 71.3045 91.9637 73.0957 95.5629 76.0141C98.1697 78.1263 100.346 80.6157 101.937 83.6276C103.353 86.2521 104.19 89.2184 104.403 92.3618C104.607 95.4765 104.125 98.7147 102.987 101.858C101.958 104.727 100.39 107.342 98.3191 109.723C96.1553 112.198 93.6049 114.315 90.8035 115.96C88.0798 117.604 85.209 118.912 82.2664 119.848C78.153 121.134 73.9804 121.912 69.8494 122.163C65.6229 122.413 61.4097 122.612 57.2934 122.204C51.9406 121.67 46.7305 120.75 41.8023 119.05C40.4844 118.594 39.163 118.154 37.7769 117.684Z" fill="#B996FF"/>
<path d="M72.5242 52.1079L79.3426 53.1834L66.9448 40.7856L57.9252 49.8052L64.7436 50.8807C69.6552 63.9944 68.3762 60.2562 68.3762 60.2562C68.3762 60.2562 75.9465 65.227 72.5242 52.1079Z" fill="#B996FF"/>
</svg>
